HIERARCHY
ROOT Hips
{
	OFFSET 0.000000 89.005402 0.000000
	CHANNELS 6 Xposition Yposition Zposition Xrotation Yrotation Zrotation
	JOINT Spine
	{
		OFFSET 0.116900 10.681000 0.373400
		CHANNELS 3 Xrotation Yrotation Zrotation
		JOINT Spine1
		{
			OFFSET 0.000000 13.840401 0.053500
			CHANNELS 3 Xrotation Yrotation Zrotation
			JOINT Spine2
			{
				OFFSET 0.000000 14.712700 -0.366200
				CHANNELS 3 Xrotation Yrotation Zrotation
				JOINT Neck
				{
					OFFSET 0.000000 35.415497 -3.314200
					CHANNELS 3 Xrotation Yrotation Zrotation
					JOINT Head
					{
						OFFSET 0.000000 16.899200 1.218300
						CHANNELS 3 Xrotation Yrotation Zrotation
						JOINT HeadTop_End
						{
							OFFSET 0.000000 22.206207 2.192500
							CHANNELS 3 Xrotation Yrotation Zrotation
							End Site
							{
								OFFSET 0.000000 22.314178 0.000000
							}
						}
					}
				}
				JOINT LeftShoulder
				{
					OFFSET 12.896400 26.716293 -4.548400
					CHANNELS 3 Xrotation Yrotation Zrotation
					JOINT LeftArm
					{
						OFFSET 19.027000 -4.857010 -1.718400
						CHANNELS 3 Xrotation Yrotation Zrotation
						JOINT LeftForeArm
						{
							OFFSET 24.179897 0.000000 0.000000
							CHANNELS 3 Xrotation Yrotation Zrotation
							JOINT LeftHand
							{
								OFFSET 27.156403 0.000000 0.000000
								CHANNELS 3 Xrotation Yrotation Zrotation
								JOINT LeftHandIndex1
								{
									OFFSET 16.441200 0.000000 0.000000
									CHANNELS 3 Xrotation Yrotation Zrotation
									JOINT LeftHandIndex2
									{
										OFFSET 4.821899 0.000000 0.000000
										CHANNELS 3 Xrotation Yrotation Zrotation
										JOINT LeftHandIndex3
										{
											OFFSET 6.386497 0.000000 0.000000
											CHANNELS 3 Xrotation Yrotation Zrotation
											JOINT LeftHandIndex4
											{
												OFFSET 5.188988 0.000000 0.000000
												CHANNELS 3 Xrotation Yrotation Zrotation
												End Site
												{
													OFFSET -0.178703 5.185913 0.000177
												}
											}
										}
									}
								}
								JOINT LeftHandThumb1
								{
									OFFSET 6.534897 -5.032593 5.900300
									CHANNELS 3 Xrotation Yrotation Zrotation
									JOINT LeftHandThumb2
									{
										OFFSET 3.818176 -2.204422 2.204423
										CHANNELS 3 Xrotation Yrotation Zrotation
										JOINT LeftHandThumb3
										{
											OFFSET 3.252098 -1.877594 1.877601
											CHANNELS 3 Xrotation Yrotation Zrotation
											JOINT LeftHandThumb4
											{
												OFFSET 5.251778 -3.032120 3.032117
												CHANNELS 3 Xrotation Yrotation Zrotation
												End Site
												{
													OFFSET 0.000023 6.780014 0.000000
												}
											}
										}
									}
								}
							}
						}
					}
				}
				JOINT RightShoulder
				{
					OFFSET -12.896300 26.716293 -4.548400
					CHANNELS 3 Xrotation Yrotation Zrotation
					JOINT RightArm
					{
						OFFSET -19.027000 -4.857010 -1.718400
						CHANNELS 3 Xrotation Yrotation Zrotation
						JOINT RightForeArm
						{
							OFFSET -24.179897 0.000000 0.000000
							CHANNELS 3 Xrotation Yrotation Zrotation
							JOINT RightHand
							{
								OFFSET -27.156403 0.000000 0.000000
								CHANNELS 3 Xrotation Yrotation Zrotation
								JOINT RightHandThumb1
								{
									OFFSET -6.591202 -4.852203 5.988100
									CHANNELS 3 Xrotation Yrotation Zrotation
									JOINT RightHandThumb2
									{
										OFFSET -3.818176 -2.204422 2.204423
										CHANNELS 3 Xrotation Yrotation Zrotation
										JOINT RightHandThumb3
										{
											OFFSET -3.252098 -1.877594 1.877601
											CHANNELS 3 Xrotation Yrotation Zrotation
											JOINT RightHandThumb4
											{
												OFFSET -5.251778 -3.032120 3.032117
												CHANNELS 3 Xrotation Yrotation Zrotation
												End Site
												{
													OFFSET -0.000023 6.780014 0.000000
												}
											}
										}
									}
								}
								JOINT RightHandIndex1
								{
									OFFSET -16.029404 0.000000 0.000000
									CHANNELS 3 Xrotation Yrotation Zrotation
									JOINT RightHandIndex2
									{
										OFFSET -5.213303 0.000000 0.000000
										CHANNELS 3 Xrotation Yrotation Zrotation
										JOINT RightHandIndex3
										{
											OFFSET -6.386528 0.000000 0.000000
											CHANNELS 3 Xrotation Yrotation Zrotation
											JOINT RightHandIndex4
											{
												OFFSET -5.189026 0.000000 0.000000
												CHANNELS 3 Xrotation Yrotation Zrotation
												End Site
												{
													OFFSET 0.236702 5.183624 0.001972
												}
											}
										}
									}
								}
							}
						}
					}
				}
			}
		}
	}
	JOINT LeftUpLeg
	{
		OFFSET 14.073000 -7.904099 -1.463000
		CHANNELS 3 Xrotation Yrotation Zrotation
		JOINT LeftLeg
		{
			OFFSET -0.109806 -34.073280 4.093200
			CHANNELS 3 Xrotation Yrotation Zrotation
			JOINT LeftFoot
			{
				OFFSET 0.109806 -29.899420 -6.319000
				CHANNELS 3 Xrotation Yrotation Zrotation
				JOINT LeftToeBase
				{
					OFFSET 1.551100 -14.988700 20.535801
					CHANNELS 3 Xrotation Yrotation Zrotation
					JOINT LeftToe_End
					{
						OFFSET 0.221200 0.570800 13.248301
						CHANNELS 3 Xrotation Yrotation Zrotation
						End Site
						{
							OFFSET 0.000000 13.262435 0.000000
						}
					}
				}
			}
		}
	}
	JOINT RightUpLeg
	{
		OFFSET -13.839300 -7.904099 -1.463000
		CHANNELS 3 Xrotation Yrotation Zrotation
		JOINT RightLeg
		{
			OFFSET 0.109694 -34.073219 4.093300
			CHANNELS 3 Xrotation Yrotation Zrotation
			JOINT RightFoot
			{
				OFFSET -0.109694 -29.899384 -6.319200
				CHANNELS 3 Xrotation Yrotation Zrotation
				JOINT RightToeBase
				{
					OFFSET -1.551100 -14.988700 20.535801
					CHANNELS 3 Xrotation Yrotation Zrotation
					JOINT RightToe_End
					{
						OFFSET -0.221200 0.570900 13.248299
						CHANNELS 3 Xrotation Yrotation Zrotation
						End Site
						{
							OFFSET 0.000000 13.262440 0.000000
						}
					}
				}
			}
		}
	}
}
MOTION
Frames: 9
Frame Time: 0.033333
-0.384552 71.819824 -0.075037 -5.398682 -46.211984 -0.238054 9.452219 7.171218 -1.616268 2.187716 0.989899 -0.915630 2.202830 0.982772 -0.894152 0.084651 13.220559 4.538679 8.920926 20.138145 -4.130236 0.000001 0.000000 0.000000 1.117176 3.546356 -8.633313 -53.487024 4.935512 -51.503007 0.000109 -106.358073 0.000098 1.988606 -7.706144 -15.869253 0.255308 3.378220 -45.814327 5.654095 5.847759 -88.067455 2.162139 4.544814 -50.866376 -0.000001 0.000002 -0.000000 -6.141215 -11.690805 -6.761685 9.914118 42.595532 3.409855 -0.422817 8.108093 27.509111 -0.000001 0.000000 0.000002 3.036127 13.027198 -5.371410 -48.713708 27.172823 83.457071 0.000066 105.988280 -0.000068 -8.345365 17.548103 8.775691 -7.341090 13.749659 7.412322 9.855748 -44.489093 -3.903258 -0.115771 -14.513088 -28.973871 0.000001 -0.000002 -0.000000 -0.124375 -2.384784 45.108857 4.500587 -4.654537 88.071164 1.723225 -3.618378 50.920116 0.000001 -0.000001 -0.000002 -31.861402 6.395806 19.963977 59.337589 -8.188269 3.970974 -25.244850 -6.905771 -16.448617 -1.594037 -0.000012 -0.000003 -0.000000 -0.000000 0.000000 -18.986249 -11.114495 -32.040841 59.475088 -5.224294 -6.737422 -30.568898 -9.909629 26.194255 -0.012998 0.000001 -0.000001 0.000000 -0.000000 -0.000000 
-0.776035 72.921387 0.249851 -6.392266 -46.870998 -0.260079 7.673315 5.650398 -0.967237 4.035043 1.033177 -1.400380 4.049818 1.016967 -1.377670 0.567157 10.562077 3.108948 8.065168 22.890604 -5.863956 -0.000000 0.000000 -0.000000 0.625728 2.714222 -6.271000 -44.216063 2.089197 -55.472013 0.000110 -106.157259 0.000103 -2.210154 -8.519268 -11.328751 0.255312 3.378215 -45.814331 5.654097 5.847759 -88.067448 2.162138 4.544815 -50.866376 0.000000 -0.000000 0.000001 -6.141213 -11.690805 -6.761687 9.914112 42.595529 3.409861 -0.422820 8.108090 27.509113 -0.000000 0.000002 -0.000002 5.105809 15.048327 -2.341999 -47.026505 31.129151 74.844441 0.000110 106.626520 -0.000109 -13.528602 17.558611 10.458267 -7.341086 13.749657 7.412319 9.855753 -44.489100 -3.903263 -0.115768 -14.513090 -28.973871 -0.000001 0.000000 -0.000000 -0.124374 -2.384783 45.108857 4.500587 -4.654540 88.071164 1.723222 -3.618377 50.920116 0.000001 -0.000002 -0.000000 -28.328466 7.271501 18.245375 55.901420 -6.446242 4.814729 -24.648251 -6.719116 -17.639599 -1.581196 -0.000003 -0.000002 0.000000 0.000000 -0.000000 -18.163309 -12.563376 -33.503031 56.980187 -2.923428 -5.976077 -29.837053 -9.293787 24.424084 -0.012998 0.000002 -0.000001 0.000000 0.000001 0.000000 
-1.588666 74.430511 1.266089 -9.290235 -46.815469 -0.689743 5.256767 4.914707 -0.046636 5.897425 1.841839 -1.815015 5.911615 1.813891 -1.782589 -0.090113 7.275216 1.209847 -4.421241 26.292146 -5.426519 0.000000 0.000000 -0.000000 0.184063 1.404633 -2.932527 -32.086337 -4.500050 -61.532669 -0.000181 -101.552742 -0.000203 -3.583051 -8.497505 -7.474714 0.255313 3.378216 -45.814331 5.654092 5.847758 -88.067448 2.162137 4.544814 -50.866372 0.000004 -0.000001 0.000001 -6.141214 -11.690803 -6.761679 9.914122 42.595539 3.409856 -0.422818 8.108090 27.509111 -0.000001 0.000003 -0.000000 6.708136 17.663591 2.530794 -40.379044 35.412871 61.832685 -0.000007 108.594967 -0.000007 -18.908609 17.361699 11.655124 -7.341087 13.749657 7.412319 9.855750 -44.489103 -3.903257 -0.115773 -14.513090 -28.973874 0.000001 -0.000000 0.000000 -0.124372 -2.384784 45.108857 4.500585 -4.654539 88.071164 1.723223 -3.618380 50.920116 0.000000 0.000001 0.000004 -21.867908 8.808167 14.885168 50.732050 -4.951788 5.836346 -23.866069 -6.809520 -18.405707 -1.596374 -0.000002 0.000000 -0.000000 -0.000002 0.000000 -14.277579 -14.773409 -35.434919 52.478512 -0.323089 -6.045131 -28.685531 -10.298779 23.562225 -0.012998 0.000002 -0.000001 -0.000000 0.000000 -0.000000 
-2.856010 76.001862 3.405106 -14.520431 -45.964253 -0.744487 2.421409 5.461742 1.391888 7.318438 3.584095 -2.009522 7.334985 3.542381 -1.954474 -4.871006 3.525389 0.426267 -45.469355 25.177703 4.396440 0.000001 -0.000000 -0.000001 -0.152507 -0.031990 1.488947 -18.662638 -8.312384 -69.906501 0.000639 -94.884619 0.000640 -2.534391 -5.970308 -9.261952 0.255309 3.378219 -45.814331 5.654088 5.847759 -88.067455 2.162137 4.544811 -50.866379 -0.000001 -0.000001 -0.000000 -6.141215 -11.690803 -6.761685 9.914123 42.595529 3.409861 -0.422819 8.108090 27.509113 -0.000002 -0.000000 0.000000 7.618127 22.391655 7.621646 -30.542827 38.149441 46.424471 -0.000042 109.776863 0.000039 -22.389642 15.654093 13.118644 -7.341086 13.749657 7.412319 9.855753 -44.489103 -3.903263 -0.115769 -14.513090 -28.973874 -0.000000 -0.000000 0.000001 -0.124374 -2.384785 45.108851 4.500582 -4.654538 88.071171 1.723224 -3.618380 50.920119 -0.000002 -0.000001 -0.000003 -11.530439 10.833465 8.969663 43.678687 -3.207361 6.304342 -23.124753 -8.243647 -18.376110 -1.605286 -0.000007 0.000000 0.000000 -0.000000 0.000000 -7.301634 -18.233009 -39.155077 45.887622 2.797158 -7.775082 -27.073480 -13.311237 24.663002 -0.012998 0.000002 -0.000001 0.000000 0.000000 -0.000000 
-3.284658 76.781677 4.387186 -17.583989 -47.051793 -0.529786 1.323666 4.820088 2.423301 9.011863 4.251269 -2.212353 9.034427 4.202411 -2.147734 -7.994069 0.667722 0.202884 -71.614875 21.580912 9.292734 0.000001 0.000001 0.000001 -0.150181 -1.401989 4.433562 -9.740627 -4.332408 -73.309049 0.000256 -96.659683 0.000254 -6.364967 -4.528758 -11.118774 0.255307 3.378215 -45.814331 5.654091 5.847759 -88.067448 2.162139 4.544820 -50.866372 -0.000000 0.000001 0.000000 -6.141214 -11.690807 -6.761687 9.914119 42.595529 3.409866 -0.422818 8.108090 27.509106 -0.000001 0.000000 0.000000 9.163364 27.564960 7.501577 -29.340269 39.601314 39.750072 0.000043 107.941509 -0.000062 -23.509240 13.240966 14.911944 -7.341090 13.749658 7.412320 9.855749 -44.489096 -3.903261 -0.115766 -14.513086 -28.973874 -0.000004 0.000001 -0.000001 -0.124373 -2.384784 45.108851 4.500584 -4.654538 88.071164 1.723224 -3.618380 50.920119 -0.000000 -0.000002 -0.000001 -5.051572 11.842541 5.414975 38.749992 -0.682257 5.846800 -22.167823 -9.710628 -18.871154 -1.600915 0.000019 0.000001 0.000000 -0.000003 -0.000000 -5.851144 -19.508316 -42.840210 42.978357 4.781769 -8.621039 -25.881953 -13.131232 25.336445 -0.012998 0.000001 -0.000001 -0.000000 -0.000001 0.000000 
-3.101830 76.666138 4.223972 -18.411779 -47.960420 -0.272740 1.498891 3.728593 3.222623 10.061147 3.992693 -1.989618 10.090133 3.936834 -1.924351 -7.996283 -0.770132 -0.367025 -72.722185 19.117643 6.445790 -0.000001 -0.000000 0.000001 -0.090791 -2.030525 5.478418 -7.488315 0.491993 -72.487828 0.000028 -100.190228 0.000032 -11.765666 -4.137198 -11.157915 0.255310 3.378217 -45.814331 5.654091 5.847759 -88.067448 2.162138 4.544819 -50.866376 -0.000001 0.000001 -0.000003 -6.141214 -11.690805 -6.761687 9.914119 42.595529 3.409859 -0.422818 8.108093 27.509111 -0.000001 0.000000 0.000000 10.774472 29.731250 4.936786 -33.876871 40.321018 40.898206 0.000003 105.442261 -0.000010 -22.624305 11.722560 15.768726 -7.341086 13.749657 7.412324 9.855754 -44.489096 -3.903268 -0.115768 -14.513090 -28.973871 0.000001 0.000000 -0.000001 -0.124374 -2.384784 45.108857 4.500585 -4.654538 88.071164 1.723224 -3.618381 50.920116 -0.000001 -0.000001 0.000003 -3.981801 11.868001 4.448817 38.191372 0.347529 5.361214 -21.888465 -9.914472 -19.060638 -1.621743 0.000008 0.000004 0.000000 -0.000000 0.000000 -7.628653 -19.036862 -45.010988 44.230932 5.535606 -8.759425 -26.207767 -12.026598 25.228904 -0.012998 0.000001 -0.000001 0.000000 -0.000000 0.000000 
-2.922346 76.206619 3.879946 -19.045650 -47.526410 0.072123 2.029694 3.418813 3.908332 10.461002 3.837585 -1.631590 10.492835 3.775208 -1.564523 -7.222523 -1.438775 -0.364112 -70.333764 17.148382 3.634164 -0.000002 0.000000 -0.000001 -0.241450 -2.504207 6.860253 -9.238011 3.367529 -71.141174 -0.000051 -101.834405 -0.000048 -13.524284 -2.998427 -12.064708 0.255310 3.378217 -45.814331 5.654090 5.847761 -88.067455 2.162139 4.544821 -50.866376 -0.000001 0.000004 -0.000002 -6.141214 -11.690803 -6.761688 9.914119 42.595529 3.409856 -0.422818 8.108089 27.509108 0.000003 0.000000 0.000001 10.802256 29.062906 4.634785 -38.295122 40.289227 43.293864 -0.000117 104.687027 0.000117 -21.342673 10.955087 16.180366 -7.341092 13.749660 7.412319 9.855750 -44.489096 -3.903259 -0.115772 -14.513088 -28.973871 -0.000000 0.000004 -0.000001 -0.124377 -2.384782 45.108851 4.500586 -4.654538 88.071164 1.723224 -3.618380 50.920116 -0.000001 -0.000000 0.000002 -4.397454 11.558990 3.961319 39.290933 0.410406 5.196719 -21.983399 -10.203834 -18.990900 -1.712716 0.000013 -0.000000 0.000000 0.000002 0.000000 -8.080051 -18.544513 -46.304185 46.202237 5.733756 -8.627454 -27.222028 -12.337610 25.094926 -0.012998 0.000002 -0.000001 -0.000000 0.000000 0.000000 
-2.685575 75.834846 3.299759 -19.903540 -47.170806 0.012080 2.970347 3.146641 4.317968 11.173179 3.681434 -1.489780 11.205100 3.616630 -1.425189 -5.581376 -1.790774 0.325257 -67.596545 16.870719 2.366684 -0.000000 -0.000001 -0.000001 -0.418048 -3.350551 8.762946 -11.915720 6.901757 -69.718548 -0.000159 -104.708904 -0.000143 -14.390811 -2.066307 -12.780476 0.255310 3.378215 -45.814331 5.654092 5.847759 -88.067448 2.162139 4.544817 -50.866376 0.000003 -0.000001 0.000002 -6.141215 -11.690803 -6.761684 9.914115 42.595536 3.409859 -0.422814 8.108090 27.509115 0.000000 -0.000000 0.000001 10.238628 27.828721 5.848648 -42.095231 39.613885 44.607081 0.000112 105.658430 -0.000118 -20.980219 10.442515 16.885672 -7.341090 13.749661 7.412321 9.855750 -44.489100 -3.903260 -0.115769 -14.513090 -28.973874 -0.000001 -0.000003 0.000001 -0.124374 -2.384784 45.108854 4.500585 -4.654538 88.071164 1.723224 -3.618380 50.920116 0.000001 0.000000 -0.000000 -4.828475 11.330674 3.772494 40.172444 0.328670 5.200982 -21.680651 -10.387428 -19.114360 -1.908773 0.000022 -0.000001 0.000000 0.000000 0.000000 -8.171895 -17.805919 -46.847171 48.182822 5.879681 -8.550130 -28.158312 -12.938064 24.687695 -0.012998 0.000002 -0.000001 -0.000000 0.000000 0.000000 
-2.374055 75.586464 2.497633 -20.678210 -47.144052 -0.374624 4.240024 2.460073 4.670928 12.081173 3.251439 -1.281436 12.113247 3.185304 -1.224433 -3.104114 -1.773353 1.091753 -62.795789 17.859481 1.711524 -0.000000 0.000000 0.000000 -0.506467 -3.999218 9.869803 -15.018614 11.255997 -67.456758 0.000053 -108.553289 0.000047 -16.321203 -2.302254 -12.347208 0.255307 3.378218 -45.814327 5.654088 5.847758 -88.067448 2.162140 4.544818 -50.866372 -0.000000 0.000000 0.000001 -6.141218 -11.690800 -6.761686 9.914120 42.595525 3.409859 -0.422821 8.108090 27.509111 -0.000002 -0.000001 -0.000000 9.852061 27.499399 6.896578 -45.239379 38.547142 45.245482 -0.000045 106.838584 0.000043 -21.021523 9.967208 17.759677 -7.341089 13.749658 7.412316 9.855751 -44.489096 -3.903259 -0.115769 -14.513092 -28.973871 0.000002 -0.000001 0.000000 -0.124373 -2.384781 45.108851 4.500587 -4.654539 88.071164 1.723224 -3.618379 50.920112 -0.000000 -0.000000 0.000003 -5.422671 11.206172 3.987587 40.774976 0.112501 5.309613 -20.975352 -10.294760 -19.415641 -2.203255 -0.000003 0.000001 -0.000000 0.000000 0.000000 -8.595040 -16.869481 -46.807843 50.124706 5.857796 -8.471099 -28.882316 -13.120705 24.052387 -0.012998 0.000001 -0.000001 -0.000000 -0.000000 0.000000 
